# xmcd CD database file
#
# Track frame offsets:
#	150
#	16613
#	36348
#	52744
#
# Disc length: 962 seconds
#
# Revision: 0
# Processed by: cddbd v1.5.1PL0 Copyright (c) Steve Scherf et al.
# Submitted via: CDex 1.51
#
DISCID=2103c004
DTITLE=新谷良子 - 恋の構造/トリックスター
DYEAR=2004
DGENRE=Vocal
TTITLE0=恋の構造
TTITLE1=トリックスター
TTITLE2=恋の構造　(inst.)
TTITLE3=トリックスター　(inst.)
EXTD=YEAR: 2004_09_23
EXTT0=
EXTT1=
EXTT2=
EXTT3=
PLAYORDER=
